<mxfile host="app.diagrams.net" modified="2024-05-02T22:25:21.911Z" agent="Mozilla/5.0 (Macintosh; Intel Mac OS X 10_15_7) AppleWebKit/537.36 (KHTML, like Gecko) Chrome/123.0.0.0 Safari/537.36" etag="w-GnH672GgZsBFcWQawT" version="24.3.1" type="device">
  <diagram name="Page-1" id="z5eUeKoLlgRlaG9Mh7jn">
    <mxGraphModel dx="984" dy="594" grid="1" gridSize="10" guides="1" tooltips="1" connect="1" arrows="1" fold="1" page="1" pageScale="1" pageWidth="850" pageHeight="1100" math="0" shadow="0">
      <root>
        <mxCell id="0" />
        <mxCell id="1" parent="0" />
        <mxCell id="A97-xM2RX6I2kmBJVOkm-1" value="users" style="swimlane;fontStyle=0;childLayout=stackLayout;horizontal=1;startSize=26;fillColor=none;horizontalStack=0;resizeParent=1;resizeParentMax=0;resizeLast=0;collapsible=1;marginBottom=0;html=1;" parent="1" vertex="1">
          <mxGeometry x="150" y="180" width="340" height="134" as="geometry" />
        </mxCell>
        <mxCell id="A97-xM2RX6I2kmBJVOkm-2" value="ROWID : INT NOT NULL AUTO INCREMENT PK" style="text;strokeColor=none;fillColor=none;align=left;verticalAlign=top;spacingLeft=4;spacingRight=4;overflow=hidden;rotatable=0;points=[[0,0.5],[1,0.5]];portConstraint=eastwest;whiteSpace=wrap;html=1;" parent="A97-xM2RX6I2kmBJVOkm-1" vertex="1">
          <mxGeometry y="26" width="340" height="26" as="geometry" />
        </mxCell>
        <mxCell id="A97-xM2RX6I2kmBJVOkm-3" value="username : TEXT NOT NULL" style="text;strokeColor=none;fillColor=none;align=left;verticalAlign=top;spacingLeft=4;spacingRight=4;overflow=hidden;rotatable=0;points=[[0,0.5],[1,0.5]];portConstraint=eastwest;whiteSpace=wrap;html=1;" parent="A97-xM2RX6I2kmBJVOkm-1" vertex="1">
          <mxGeometry y="52" width="340" height="26" as="geometry" />
        </mxCell>
        <mxCell id="A97-xM2RX6I2kmBJVOkm-6" value="password : TEXT NOT NULL" style="text;strokeColor=none;fillColor=none;align=left;verticalAlign=middle;spacingLeft=4;spacingRight=4;overflow=hidden;points=[[0,0.5],[1,0.5]];portConstraint=eastwest;rotatable=0;whiteSpace=wrap;html=1;" parent="A97-xM2RX6I2kmBJVOkm-1" vertex="1">
          <mxGeometry y="78" width="340" height="30" as="geometry" />
        </mxCell>
        <mxCell id="A97-xM2RX6I2kmBJVOkm-4" value="Timestamp : DATETIME DEFAULT CURRENT_TIMESTAMP" style="text;strokeColor=none;fillColor=none;align=left;verticalAlign=top;spacingLeft=4;spacingRight=4;overflow=hidden;rotatable=0;points=[[0,0.5],[1,0.5]];portConstraint=eastwest;whiteSpace=wrap;html=1;" parent="A97-xM2RX6I2kmBJVOkm-1" vertex="1">
          <mxGeometry y="108" width="340" height="26" as="geometry" />
        </mxCell>
      </root>
    </mxGraphModel>
  </diagram>
</mxfile>
